<svg xmlns="http://www.w3.org/2000/svg" width="25.446" height="20.435" viewBox="0 0 25.446 20.435">
  <path id="angle-double-right-solid" d="M37.489,107.253l-8.682,8.682a1.526,1.526,0,0,1-2.164,0L25.2,114.492a1.526,1.526,0,0,1,0-2.164l6.154-6.154L25.2,100.02a1.526,1.526,0,0,1,0-2.164L26.636,96.4a1.526,1.526,0,0,1,2.164,0l8.682,8.682A1.528,1.528,0,0,1,37.489,107.253Zm12.257-2.171L41.064,96.4a1.526,1.526,0,0,0-2.164,0l-1.443,1.443a1.526,1.526,0,0,0,0,2.164l6.154,6.154-6.154,6.154a1.526,1.526,0,0,0,0,2.164l1.443,1.443a1.526,1.526,0,0,0,2.164,0l8.682-8.682a1.518,1.518,0,0,0,0-2.158Z" transform="translate(-24.75 -95.95)" fill="#c8c8c8" opacity="0.75"/>
</svg>
