<svg xmlns="http://www.w3.org/2000/svg" width="42.617" height="42.618" viewBox="0 0 42.617 42.618"><defs><style>.a{fill:#7485f1;}</style></defs><path class="a" d="M41.445,11.828l-3.837,3.837a1,1,0,0,1-1.415,0l-9.24-9.24a1,1,0,0,1,0-1.415l3.837-3.837a4,4,0,0,1,5.652,0l5,5A3.989,3.989,0,0,1,41.445,11.828ZM23.657,8.306,1.8,30.166.033,40.279a2,2,0,0,0,2.314,2.314L12.461,40.82,34.32,18.961a1,1,0,0,0,0-1.415l-9.24-9.24a1.01,1.01,0,0,0-1.423,0ZM10.33,28.293a1.161,1.161,0,0,1,0-1.648L23.149,13.825A1.165,1.165,0,0,1,24.8,15.474L11.978,28.293a1.161,1.161,0,0,1-1.648,0Zm-3.005,7h4v3.022l-5.369.941L3.363,36.667,4.3,31.3H7.325Z" transform="translate(-0.002 -0.005)"/></svg>