<svg xmlns="http://www.w3.org/2000/svg" width="42.238" height="42.238" viewBox="0 0 42.238 42.238"><defs><style>.a{fill:#7485f1;}</style></defs><path class="a" d="M39.221,18.844H25.645V5.267A3.017,3.017,0,0,0,22.628,2.25H19.611a3.017,3.017,0,0,0-3.017,3.017V18.844H3.017A3.017,3.017,0,0,0,0,21.861v3.017a3.017,3.017,0,0,0,3.017,3.017H16.594V41.471a3.017,3.017,0,0,0,3.017,3.017h3.017a3.017,3.017,0,0,0,3.017-3.017V27.895H39.221a3.017,3.017,0,0,0,3.017-3.017V21.861A3.017,3.017,0,0,0,39.221,18.844Z" transform="translate(0 -2.25)"/></svg>