<svg xmlns="http://www.w3.org/2000/svg" width="42.738" height="42.738" viewBox="0 0 42.738 42.738"><defs><style>.a{fill:#7485f1;}</style></defs><path class="a" d="M41.4,11.593l-8-8A4.579,4.579,0,0,0,30.157,2.25H4.579A4.579,4.579,0,0,0,0,6.829v33.58a4.579,4.579,0,0,0,4.579,4.579h33.58a4.579,4.579,0,0,0,4.579-4.579V14.831A4.579,4.579,0,0,0,41.4,11.593ZM21.369,38.883a6.105,6.105,0,1,1,6.105-6.105A6.106,6.106,0,0,1,21.369,38.883ZM30.527,9.832v9.589a1.145,1.145,0,0,1-1.145,1.145H7.25a1.145,1.145,0,0,1-1.145-1.145V9.5A1.145,1.145,0,0,1,7.25,8.355h21.8a1.144,1.144,0,0,1,.809.335l.332.332a1.144,1.144,0,0,1,.335.809Z" transform="translate(0 -2.25)"/></svg>