<svg id="Capa_1" enable-background="new 0 0 511.996 511.996" height="512" viewBox="0 0 511.996 511.996" width="512" xmlns="http://www.w3.org/2000/svg"><g><g><g><path d="m80.202 392.084h-12.244c-22.867 0-41.404 18.537-41.404 41.404v71.007h248.351v-71.007c0-22.867-18.537-41.404-41.404-41.404z" fill="#c4e2ff"/><path d="m112.368 312.348v62.183l38.219 25.48 38.22-25.48v-62.183z" fill="#ffcebf"/><path d="m242.83 221.98c-.427 0-.851.015-1.274.032-7.3-43.65-45.246-76.918-90.969-76.918-45.723 0-83.669 33.269-90.969 76.918-.423-.017-.847-.032-1.274-.032-17.299 0-31.323 14.023-31.323 31.322s14.024 31.323 31.323 31.323c.427 0 .851-.015 1.274-.032 7.3 43.65 45.246 76.918 90.969 76.918 45.723 0 83.669-33.268 90.969-76.918.423.017.847.032 1.274.032 17.299 0 31.323-14.024 31.323-31.323s-14.024-31.322-31.323-31.322z" fill="#ffcebf"/><path d="m150.587 400.011-19.59 20.454 7.1 27.825h24.98l7.1-27.825z" fill="#fd544d"/><path d="m138.097 448.29-11.041 56.205h47.058l-11.041-56.205z" fill="#fd544d"/><g fill="#b3dafe"><path d="m112.368 374.532-32.308 17.552 45.581 33.973 24.946-26.046z"/><path d="m188.807 374.532 32.307 17.552-45.581 33.973-24.946-26.046z"/><path d="m233.5 392.084h-28.346c22.867 0 41.404 18.537 41.404 41.404v71.007h28.346v-71.007c0-22.866-18.537-41.404-41.404-41.404z"/></g><path d="m242.83 221.98c-.427 0-.851.015-1.274.032-7.3-43.65-45.246-76.918-90.969-76.918-4.822 0-9.551.391-14.173 1.104 39.206 6.05 70.265 36.768 76.796 75.814.423-.017.847-.032 1.275-.032 17.299 0 31.323 14.023 31.323 31.322s-14.024 31.323-31.323 31.323c-.427 0-.851-.015-1.275-.032-6.53 39.046-37.59 69.764-76.796 75.813 4.622.713 9.351 1.104 14.173 1.104 45.723 0 83.669-33.268 90.969-76.918.423.017.847.032 1.274.032 17.299 0 31.323-14.024 31.323-31.323 0-17.298-14.024-31.321-31.323-31.321z" fill="#ffbfb1"/><path d="m188.807 374.532-12.729 8.485 16.689 9.067-29.041 21.646 11.807 12.327 45.581-33.973z" fill="#8ac9fe"/><path d="m213.759 114.658c-6.896-11.058-19.162-18.421-33.154-18.421h-75.032c-38.229 0-69.22 30.991-69.22 69.22v56.555h131.019c13.406 0 25.628-5.051 34.882-13.345 6.47 8.129 16.443 13.345 27.64 13.345h34.927v-55.57c0-28.361-22.795-51.386-51.062-51.784z" fill="#c4573a"/><g><path d="m213.759 114.658c-6.896-11.058-19.162-18.421-33.154-18.421h-28.346c13.992 0 26.258 7.363 33.154 18.421 28.266.398 51.062 23.423 51.062 51.784v55.57h28.346v-55.57c0-28.361-22.795-51.386-51.062-51.784z" fill="#a74b30"/></g></g><g><path d="m476.347 359.534h-19.647c-2.025-7.19-4.887-14.03-8.467-20.412l13.901-13.901c3.552-3.552 3.552-9.311 0-12.863l-23.315-23.314c-3.552-3.552-9.311-3.552-12.863 0l-13.901 13.901c-6.382-3.58-13.221-6.442-20.412-8.467v-19.647c0-5.023-4.072-9.096-9.096-9.096h-32.972c-5.023 0-9.096 4.072-9.096 9.096v19.647c-7.191 2.025-14.03 4.887-20.412 8.467l-13.901-13.901c-3.552-3.552-9.311-3.552-12.863 0l-23.315 23.314c-3.552 3.552-3.552 9.311 0 12.863l13.901 13.901c-3.58 6.382-6.442 13.221-8.467 20.412h-19.647c-5.023 0-9.096 4.072-9.096 9.096v32.972c0 5.024 4.072 9.096 9.096 9.096h19.647c2.025 7.191 4.887 14.03 8.467 20.412l-13.899 13.9c-3.552 3.552-3.552 9.311 0 12.863l23.315 23.315c3.552 3.552 9.311 3.552 12.863 0l13.901-13.901c6.382 3.58 13.221 6.442 20.412 8.467v19.646c0 5.024 4.072 9.096 9.096 9.096h32.972c5.023 0 9.096-4.072 9.096-9.096v-19.646c7.191-2.025 14.03-4.887 20.412-8.467l13.901 13.901c3.552 3.552 9.311 3.552 12.863 0l23.315-23.315c3.552-3.552 3.552-9.311 0-12.863l-13.901-13.901c3.58-6.382 6.442-13.221 8.467-20.412h19.647c5.023 0 9.096-4.072 9.096-9.096v-32.971c-.002-5.024-4.075-9.096-9.098-9.096z" fill="#537983"/><path d="m388.634 182.736v-20.712c0-1.757-1.424-3.181-3.181-3.181h-44.45c-1.757 0-3.181 1.424-3.181 3.181v20.712c0 1.757 1.424 3.181 3.181 3.181h44.45c1.756 0 3.181-1.424 3.181-3.181z" fill="#e94444"/><path d="m388.634 235.384v-20.712c0-1.757-1.424-3.181-3.181-3.181h-44.45c-1.757 0-3.181 1.424-3.181 3.181v20.712c0 1.757 1.424 3.181 3.181 3.181h44.45c1.756.001 3.181-1.424 3.181-3.181z" fill="#ee6161"/><path d="m409.384 76.924-46.156-67.625-46.157 67.625c-1.376 2.016.068 4.749 2.508 4.749h12.573 5.669v48.559c0 1.677 1.359 3.037 3.037 3.037h44.738c1.677 0 3.037-1.36 3.037-3.037v-48.559h5.669 12.573c2.442 0 3.885-2.733 2.509-4.749z" fill="#d83131"/><path d="m391.122 158.843h-17.008c1.757 0 3.181 1.424 3.181 3.181v20.712c0 1.757-1.424 3.181-3.181 3.181h17.008c1.757 0 3.181-1.424 3.181-3.181v-20.712c0-1.757-1.424-3.181-3.181-3.181z" fill="#d83131"/><path d="m391.122 211.491h-17.008c1.757 0 3.181 1.424 3.181 3.181v20.712c0 1.757-1.424 3.181-3.181 3.181h17.008c1.757 0 3.181-1.424 3.181-3.181v-20.712c0-1.757-1.424-3.181-3.181-3.181z" fill="#e94444"/><g fill="#ca2c2c"><path d="m377.295 130.232c0 1.677-1.36 3.037-3.037 3.037h17.008c1.677 0 3.037-1.36 3.037-3.037v-48.559h-17.008z"/><path d="m415.054 76.924-46.484-68.103c-1.206-1.767-3.811-1.767-5.016 0l-5.996 8.784 40.487 59.319c1.376 2.016-.068 4.749-2.508 4.749h17.008c2.441 0 3.884-2.733 2.509-4.749z"/></g><circle cx="366.062" cy="385.116" fill="#c8effe" r="45.901"/><path d="m366.062 339.215c-3.912 0-7.71.495-11.339 1.42 19.844 5.061 34.562 23.083 34.562 44.481s-14.719 39.42-34.562 44.481c3.628.925 7.426 1.42 11.339 1.42 25.31 0 45.901-20.591 45.901-45.901s-20.591-45.901-45.901-45.901z" fill="#99e6fc"/><g fill="#3e5959"><path d="m363.297 274.831v19.647c7.191 2.025 14.03 4.887 20.412 8.467l8.345-8.345c-.137-.039-.273-.083-.41-.122v-19.647c0-5.023-4.072-9.096-9.096-9.096h-28.346c5.023 0 9.095 4.073 9.095 9.096z"/><path d="m476.347 359.534h-19.647c-2.025-7.19-4.887-14.03-8.467-20.412l13.901-13.901c3.552-3.552 3.552-9.312 0-12.864l-23.315-23.314c-3.552-3.552-9.311-3.552-12.863 0l-7.742 7.741 15.573 15.573c3.552 3.552 3.552 9.311 0 12.864l-13.901 13.901c3.58 6.382 6.442 13.221 8.467 20.412h19.647c5.023 0 9.096 4.072 9.096 9.096v32.972c0 5.023-4.072 9.095-9.096 9.095h-19.647c-2.025 7.191-4.887 14.03-8.467 20.412l13.901 13.901c3.552 3.552 3.552 9.311 0 12.863l-15.573 15.573 7.742 7.742c3.552 3.552 9.311 3.552 12.863 0l23.315-23.315c3.552-3.552 3.552-9.311 0-12.863l-13.901-13.901c3.58-6.382 6.442-13.221 8.467-20.412h19.647c5.023 0 9.096-4.072 9.096-9.095v-32.972c-.001-5.024-4.073-9.096-9.096-9.096z"/></g></g><g><path d="m213.919 301.38h-11.376c-4.142 0-7.5-3.358-7.5-7.5s3.358-7.5 7.5-7.5h11.376c4.142 0 7.5 3.358 7.5 7.5s-3.358 7.5-7.5 7.5z" fill="#ffb09e"/></g><g><path d="m98.628 301.38h-11.377c-4.142 0-7.5-3.358-7.5-7.5s3.358-7.5 7.5-7.5h11.376c4.142 0 7.5 3.358 7.5 7.5s-3.357 7.5-7.499 7.5z" fill="#ffb09e"/></g></g><g><path d="m105.562 244.006c-4.143 0-7.5 3.358-7.5 7.5v16.986c0 4.142 3.357 7.5 7.5 7.5s7.5-3.358 7.5-7.5v-16.986c0-4.142-3.357-7.5-7.5-7.5z"/><path d="m195.612 275.992c4.143 0 7.5-3.358 7.5-7.5v-16.986c0-4.142-3.357-7.5-7.5-7.5s-7.5 3.358-7.5 7.5v16.986c0 4.142 3.358 7.5 7.5 7.5z"/><path d="m150.587 324.416c14.938 0 27.091-12.153 27.091-27.09 0-4.142-3.357-7.5-7.5-7.5s-7.5 3.358-7.5 7.5c0 6.667-5.424 12.09-12.091 12.09-6.666 0-12.09-5.424-12.09-12.09 0-4.142-3.357-7.5-7.5-7.5s-7.5 3.358-7.5 7.5c0 14.937 12.152 27.09 27.09 27.09z"/><path d="m401.803 162.024c0-5.89-4.791-10.681-10.681-10.681h-50.119c-5.89 0-10.681 4.792-10.681 10.681v20.712c0 5.89 4.791 10.681 10.681 10.681h50.119c5.89 0 10.681-4.792 10.681-10.681zm-15 16.393h-41.48v-12.074h41.48z"/><path d="m391.122 203.991h-50.119c-5.89 0-10.681 4.792-10.681 10.681v20.712c0 5.89 4.791 10.681 10.681 10.681h50.119c5.89 0 10.681-4.792 10.681-10.681v-20.712c0-5.889-4.791-10.681-10.681-10.681zm-4.319 27.075h-41.48v-12.074h41.48z"/><path d="m319.579 89.172h10.743v41.06c0 5.81 4.727 10.537 10.536 10.537h50.408c5.81 0 10.536-4.727 10.536-10.537v-41.06h10.743c5.813 0 10.542-4.731 10.542-10.546 0-2.12-.637-4.172-1.84-5.931l-12.966-18.997c-2.335-3.421-7.002-4.302-10.422-1.967-3.422 2.335-4.302 7.001-1.967 10.423l8.202 12.018h-9.793c-4.143 0-7.5 3.358-7.5 7.5v44.096h-41.48v-44.096c0-4.142-3.357-7.5-7.5-7.5h-9.793l38.033-55.722 10.1 14.796c2.334 3.421 7 4.302 10.423 1.967 3.421-2.335 4.301-7.002 1.966-10.423l-13.785-20.196c-4.185-6.135-13.24-6.115-17.405-.001l-46.484 68.104c-1.203 1.763-1.839 3.813-1.839 5.93 0 5.814 4.729 10.545 10.542 10.545z"/><path d="m366.062 331.715c-29.445 0-53.4 23.956-53.4 53.401s23.955 53.4 53.4 53.4 53.4-23.955 53.4-53.4-23.954-53.401-53.4-53.401zm0 91.801c-21.174 0-38.4-17.227-38.4-38.4 0-21.174 17.227-38.401 38.4-38.401s38.4 17.227 38.4 38.401c.001 21.174-17.226 38.4-38.4 38.4z"/><path d="m476.346 352.034h-14.138c-1.351-3.924-2.946-7.769-4.773-11.506l10.003-10.003c6.47-6.47 6.47-16.999-.001-23.47l-23.314-23.313c-6.485-6.486-16.982-6.488-23.47 0l-10.002 10.002c-3.738-1.828-7.584-3.423-11.508-4.774v-14.137c0-9.151-7.444-16.596-16.596-16.596h-32.971c-9.151 0-16.596 7.445-16.596 16.596v14.137c-3.924 1.351-7.77 2.947-11.508 4.774l-10.002-10.001c-6.484-6.485-16.982-6.489-23.469-.001l-23.316 23.315c-6.47 6.47-6.47 16.999.001 23.47l10.002 10.002c-1.827 3.737-3.423 7.583-4.773 11.506h-14.138c-9.151 0-16.596 7.445-16.596 16.596v16.29c-1.882-.22-3.778-.335-5.683-.335h-10.48l-26.713-14.513v-12.173c6.776-3.494 13.178-7.761 19.046-12.777 16.263-13.9 27.623-32.653 32.408-53.308 19.088-2.43 33.893-18.774 33.893-38.511 0-10.443-4.08-19.918-10.766-26.892.898-1.236 1.433-2.753 1.433-4.398v-55.57c0-30.899-24.098-56.616-54.483-59.094-8.775-11.725-22.417-18.611-37.232-18.611h-75.032c-42.304 0-76.72 34.417-76.72 76.72v56.555c0 1.645.536 3.161 1.433 4.398-6.685 6.975-10.766 16.45-10.766 26.892 0 19.737 14.805 36.082 33.892 38.511 4.786 20.655 16.146 39.408 32.408 53.308 5.868 5.015 12.27 9.283 19.047 12.777v12.173l-26.713 14.513h-10.195c-26.966 0-48.904 21.938-48.904 48.905v71.007c0 4.142 3.357 7.5 7.5 7.5h24.27c4.143 0 7.5-3.358 7.5-7.5s-3.357-7.5-7.5-7.5h-16.77v-63.507c0-18.695 15.209-33.905 33.904-33.905h9.615l43.585 32.486c1.436 1.07 3.299 1.624 5.167 1.453.086-.008.17-.022.255-.033l3.832 15.015-9.525 48.49h-35.064c-4.143 0-7.5 3.358-7.5 7.5s3.357 7.5 7.5 7.5h189.081c4.143 0 7.5-3.358 7.5-7.5v-23.602l5.598 5.598c6.471 6.47 16.997 6.471 23.47 0l10.002-10.002c3.738 1.828 7.584 3.423 11.508 4.774v14.135c0 9.151 7.444 16.596 16.596 16.596h32.971c9.151 0 16.596-7.445 16.596-16.596v-14.137c3.924-1.351 7.77-2.947 11.508-4.774l10.002 10.002c6.471 6.47 16.997 6.471 23.47 0l23.315-23.315c6.47-6.47 6.47-16.999-.001-23.469l-10.002-10.002c1.827-3.738 3.423-7.583 4.774-11.507h14.137c9.151 0 16.596-7.445 16.596-16.596v-32.972c-.002-9.151-7.446-16.596-16.598-16.596zm-337.052 70.611 11.293-11.791 11.294 11.792-4.63 18.145h-13.327zm22.9-21.358 27.008-18.005 18.029 9.795-30.866 23.006c-.061-.064-14.052-14.672-14.171-14.796zm-118.341-235.83c0-34.032 27.688-61.72 61.72-61.72h75.032c10.96 0 20.976 5.566 26.791 14.89 1.35 2.164 3.707 3.494 6.258 3.53 24.078.339 43.667 20.206 43.667 44.285v48.07c-10.096 0-17.27 0-27.428 0-8.517 0-16.452-3.833-21.771-10.516-2.717-3.413-7.706-3.753-10.874-.914-8.223 7.371-18.832 11.43-29.875 11.43-4.989 0-118.105 0-123.52 0zm23.162 117.898c-.617-3.687-3.871-6.403-7.7-6.257-13.617.557-24.794-10.381-24.794-23.796 0-12.787 9.966-23.21 22.715-23.79h110.137c12.297 0 24.191-3.77 34.17-10.731 7.766 6.889 17.765 10.731 28.351 10.731h14.045c12.749.58 22.715 11.003 22.715 23.79 0 13.415-11.175 24.35-24.796 23.796-3.764-.133-7.076 2.53-7.699 6.257-6.882 41.152-42.252 70.655-83.571 70.655-41.348 0-76.693-29.524-83.573-70.655zm83.572 85.655c10.07 0 20.725-1.587 30.72-4.834v6.342l-30.72 20.479-30.719-20.479v-6.342c9.54 3.1 20.162 4.834 30.719 4.834zm-38.615 14.272 27.007 18.005-14.171 14.796-30.865-23.006zm24.201 113.714 8.095-41.206h12.636l8.095 41.206zm131.231 0h-87.12l-9.524-48.481 3.834-15.023c2.089.252 3.99-.358 5.412-1.415.003-.002.006-.004.01-.006l43.587-32.487h9.897c1.91 0 3.809.161 5.683.479v1.538c0 9.151 7.444 16.596 16.596 16.596h7.983c2.393 4.72 3.643 9.938 3.643 15.292v3.5c-.725.725-2.583 2.583-2.717 2.717-2.96 2.96-4.861 7.089-4.861 11.735 0 7.632 4.241 11.115 7.578 14.453v31.102zm210.538-95.395c0 .88-.716 1.596-1.596 1.596h-19.646c-3.359 0-6.309 2.233-7.219 5.467-1.836 6.518-4.457 12.835-7.789 18.776-1.644 2.93-1.138 6.597 1.238 8.972l13.9 13.901c.622.622.622 1.634 0 2.256l-23.315 23.315c-.622.623-1.634.622-2.256 0l-13.901-13.901c-2.375-2.376-6.043-2.88-8.972-1.238-5.942 3.333-12.26 5.954-18.776 7.789-3.233.911-5.467 3.86-5.467 7.219v19.647c0 .88-.716 1.596-1.596 1.596h-32.971c-.88 0-1.596-.716-1.596-1.596v-19.646c0-3.359-2.233-6.309-5.467-7.219-6.517-1.835-12.834-4.456-18.776-7.789-2.925-1.64-6.593-1.141-8.972 1.238l-13.902 13.901c-.622.623-1.635.622-2.255 0-.177-.177-23.33-23.333-23.33-23.333-.588-.606-.617-1.607.014-2.238l4.914-4.914c.003-.003.005-.006.008-.009l8.979-8.979c2.376-2.375 2.882-6.042 1.238-8.972-3.332-5.941-5.953-12.258-7.789-18.776-.91-3.233-3.859-5.467-7.219-5.467h-7.362-12.284c-.88 0-1.596-.716-1.596-1.596v-7.361-25.61c0-.88.716-1.596 1.596-1.596h19.646c3.359 0 6.309-2.233 7.219-5.466 1.837-6.519 4.457-12.836 7.789-18.775 1.644-2.931 1.139-6.597-1.238-8.973l-13.9-13.9c-.622-.623-.622-1.636-.001-2.258l23.316-23.314c.622-.622 1.629-.626 2.256 0l13.901 13.901c2.375 2.376 6.043 2.881 8.972 1.238 5.941-3.333 12.259-5.954 18.776-7.789 3.233-.911 5.467-3.86 5.467-7.219v-19.646c0-.88.716-1.596 1.596-1.596h32.971c.88 0 1.596.716 1.596 1.596v19.646c0 3.359 2.233 6.309 5.467 7.219 6.518 1.835 12.835 4.456 18.776 7.789 2.928 1.643 6.595 1.139 8.972-1.238l13.902-13.901c.622-.622 1.629-.626 2.256.001l23.314 23.313c.622.623.622 1.636.001 2.258l-13.901 13.901c-2.377 2.376-2.882 6.042-1.238 8.973 3.332 5.939 5.952 12.256 7.789 18.775.91 3.233 3.859 5.466 7.219 5.466h19.646c.88 0 1.596.716 1.596 1.596z"/></g></g></svg>